<?xml version="1.0" encoding="UTF-8" standalone="no"?>
<svg
   xmlns:dc="http://purl.org/dc/elements/1.1/"
   xmlns:cc="http://creativecommons.org/ns#"
   xmlns:rdf="http://www.w3.org/1999/02/22-rdf-syntax-ns#"
   xmlns:svg="http://www.w3.org/2000/svg"
   xmlns="http://www.w3.org/2000/svg"
   xmlns:sodipodi="http://sodipodi.sourceforge.net/DTD/sodipodi-0.dtd"
   xmlns:inkscape="http://www.inkscape.org/namespaces/inkscape"
   aria-hidden="true"
   focusable="false"
   data-prefix="fab"
   data-icon="apple"
   class="svg-inline--fa fa-apple fa-w-12"
   role="img"
   viewBox="0 0 448 512"
   version="1.1"
   id="svg4"
   sodipodi:docname="apple.svg"
   inkscape:version="0.92.4 (5da689c313, 2019-01-14)"
   width="448"
   height="512">
  <metadata
     id="metadata10">
    <rdf:RDF>
      <cc:Work
         rdf:about="">
        <dc:format>image/svg+xml</dc:format>
        <dc:type
           rdf:resource="http://purl.org/dc/dcmitype/StillImage" />
        <dc:title></dc:title>
      </cc:Work>
    </rdf:RDF>
  </metadata>
  <defs
     id="defs8" />
  <sodipodi:namedview
     pagecolor="#ffffff"
     bordercolor="#666666"
     borderopacity="1"
     objecttolerance="10"
     gridtolerance="10"
     guidetolerance="10"
     inkscape:pageopacity="0"
     inkscape:pageshadow="2"
     inkscape:window-width="3840"
     inkscape:window-height="2104"
     id="namedview6"
     showgrid="false"
     inkscape:zoom="2.6074563"
     inkscape:cx="-8.3407718"
     inkscape:cy="196.44026"
     inkscape:window-x="-16"
     inkscape:window-y="-16"
     inkscape:window-maximized="1"
     inkscape:current-layer="svg4" />
  <path
     d="m 348.7,268.7 c -0.2,-36.7 16.4,-64.4 50,-84.8 C 379.9,157 351.5,142.2 314,139.3 278.5,136.5 239.7,160 225.5,160 210.5,160 176.1,140.3 149.1,140.3 93.3,141.2 34,184.8 34,273.5 q 0,39.3 14.4,81.2 c 12.8,36.7 59,126.7 107.2,125.2 25.2,-0.6 43,-17.9 75.8,-17.9 31.8,0 48.3,17.9 76.4,17.9 48.6,-0.7 90.4,-82.5 102.6,-119.3 -65.2,-30.7 -61.7,-90 -61.7,-91.9 z M 292.1,104.5 c 27.3,-32.4 24.8,-61.9 24,-72.5 -24.1,1.4 -52,16.4 -67.9,34.9 -17.5,19.8 -27.8,44.3 -25.6,71.9 26.1,2 49.9,-11.4 69.5,-34.3 z"
     id="path2"
     style="fill:#ffffff"
     inkscape:connector-curvature="0" />
</svg>
