<?xml version="1.0" encoding="UTF-8" ?>
<!DOCTYPE svg PUBLIC "-//W3C//DTD SVG 1.1//EN" "http://www.w3.org/Graphics/SVG/1.1/DTD/svg11.dtd">
<svg width="700pt" height="931pt" viewBox="0 0 700 931" version="1.1" xmlns="http://www.w3.org/2000/svg">
<g id="#4b270cfe">
<path fill="#4b270c" opacity="1.00" d=" M 457.68 2.46 C 460.41 1.73 463.13 0.83 465.98 0.68 L 465.95 1.29 C 465.36 16.19 465.85 31.12 465.67 46.04 C 466.70 63.29 466.07 80.58 466.21 97.85 C 456.63 100.08 446.91 101.65 437.30 103.80 C 437.05 97.19 437.55 90.57 436.92 83.97 C 436.54 79.96 436.58 75.93 436.67 71.91 C 384.25 83.50 331.80 94.98 279.37 106.52 C 278.93 116.11 280.33 125.63 280.07 135.21 C 272.34 137.35 264.38 138.47 256.55 140.17 C 256.66 136.11 256.62 132.05 256.04 128.03 C 255.48 115.04 256.68 101.97 255.31 89.02 C 255.20 77.44 255.52 65.84 255.16 54.26 C 322.73 37.24 390.15 19.64 457.68 2.46 Z" />
<path fill="#4b270c" opacity="1.00" d=" M 383.07 207.19 C 392.03 205.78 401.06 204.77 409.98 203.09 C 410.37 213.07 409.54 223.09 410.71 233.03 C 410.86 243.86 410.71 254.70 410.76 265.53 C 376.12 269.16 341.50 272.99 306.90 277.01 C 306.80 273.61 306.62 270.22 306.29 266.84 C 305.12 251.90 306.88 236.86 305.21 221.95 C 305.13 220.56 304.91 218.15 306.98 218.22 C 314.86 217.26 322.69 215.93 330.58 214.97 C 330.56 224.84 330.57 234.70 330.57 244.57 C 348.03 242.45 365.47 240.06 382.93 237.94 C 383.05 227.69 382.82 217.43 383.07 207.19 Z" />
</g>
<g id="#774d25fe">
<path fill="#774d25" opacity="1.00" d=" M 465.95 1.29 C 493.53 30.05 520.69 59.21 548.20 88.05 C 548.34 109.68 548.23 131.31 548.25 152.94 C 548.30 155.64 548.97 158.30 548.93 161.01 C 548.85 180.67 548.94 200.33 548.87 219.99 C 549.98 232.06 549.39 244.22 549.43 256.34 C 544.11 257.53 538.82 258.80 533.53 260.03 C 530.13 258.02 526.57 256.32 523.00 254.66 C 522.96 245.47 522.97 236.29 523.00 227.10 C 516.81 223.23 510.35 219.81 504.15 215.96 C 503.94 203.97 504.08 191.97 504.08 179.97 C 504.19 178.48 503.54 177.17 502.74 175.98 C 501.72 174.54 502.03 172.68 501.95 171.04 C 502.01 166.09 502.00 161.15 502.00 156.20 C 494.29 150.69 486.79 144.88 479.08 139.37 C 478.94 149.84 480.32 160.24 479.92 170.73 C 475.99 168.53 472.32 165.90 468.53 163.48 C 466.99 160.22 467.21 156.50 466.93 152.99 C 466.46 134.61 467.52 116.20 466.21 97.85 C 466.07 80.58 466.70 63.29 465.67 46.04 C 465.85 31.12 465.36 16.19 465.95 1.29 Z" />
<path fill="#774d25" opacity="1.00" d=" M 468.07 258.70 C 476.15 262.90 484.83 265.80 493.13 269.55 C 474.80 270.78 456.62 273.59 438.29 274.79 C 410.52 277.64 382.76 280.56 354.99 283.39 C 349.06 284.19 343.07 284.46 337.17 285.49 C 327.68 286.63 318.17 287.80 308.62 288.48 C 302.89 289.11 297.19 290.21 291.40 290.08 C 281.07 287.47 270.56 285.46 260.39 282.31 C 275.58 279.98 290.93 278.82 306.19 276.97 C 306.38 273.59 306.53 270.21 306.29 266.84 C 306.62 270.22 306.80 273.61 306.90 277.01 C 341.50 272.99 376.12 269.16 410.76 265.53 C 423.13 263.84 435.58 262.84 447.96 261.31 C 454.66 260.39 461.48 260.29 468.07 258.70 Z" />
</g>
<g id="#c6774bfe">
<path fill="#c6774b" opacity="1.00" d=" M 279.37 106.52 C 331.80 94.98 384.25 83.50 436.67 71.91 C 436.58 75.93 436.54 79.96 436.92 83.97 C 437.55 90.57 437.05 97.19 437.30 103.80 C 446.91 101.65 456.63 100.08 466.21 97.85 C 467.52 116.20 466.46 134.61 466.93 152.99 C 467.21 156.50 466.99 160.22 468.53 163.48 L 467.43 162.77 C 467.53 175.50 467.47 188.23 467.45 200.97 C 468.64 220.18 467.84 239.45 468.07 258.70 C 461.48 260.29 454.66 260.39 447.96 261.31 C 435.58 262.84 423.13 263.84 410.76 265.53 C 410.71 254.70 410.86 243.86 410.71 233.03 C 409.54 223.09 410.37 213.07 409.98 203.09 C 401.06 204.77 392.03 205.78 383.07 207.19 C 382.82 217.43 383.05 227.69 382.93 237.94 C 365.47 240.06 348.03 242.45 330.57 244.57 C 330.57 234.70 330.56 224.84 330.58 214.97 C 322.69 215.93 314.86 217.26 306.98 218.22 C 304.91 218.15 305.13 220.56 305.21 221.95 C 306.88 236.86 305.12 251.90 306.29 266.84 C 306.53 270.21 306.38 273.59 306.19 276.97 C 290.93 278.82 275.58 279.98 260.39 282.31 C 259.91 282.38 258.96 282.53 258.49 282.60 C 258.01 268.39 259.09 254.13 257.77 239.98 C 257.57 227.34 258.39 214.64 257.13 202.06 C 256.93 189.70 257.73 177.28 256.56 164.96 C 256.54 156.70 256.58 148.43 256.55 140.17 C 264.38 138.47 272.34 137.35 280.07 135.21 C 280.33 125.63 278.93 116.11 279.37 106.52 M 408.03 140.17 C 400.13 142.15 392.04 143.40 384.03 144.90 L 384.87 144.80 C 384.10 145.10 382.55 145.68 381.78 145.98 C 381.97 151.45 380.97 157.08 382.47 162.43 C 382.22 167.11 382.21 171.82 382.59 176.50 C 388.25 175.13 394.22 174.94 399.76 173.40 C 403.04 173.45 406.23 172.61 409.47 172.16 C 418.95 170.38 428.51 169.07 437.98 167.23 C 437.86 156.73 437.89 146.22 437.98 135.72 C 427.94 136.82 418.18 140.14 408.03 140.17 M 307.99 159.55 C 307.17 159.60 305.52 159.68 304.70 159.73 C 296.77 161.48 288.77 162.96 280.75 164.23 C 280.43 173.86 280.63 183.51 280.65 193.16 C 288.94 192.26 297.09 190.41 305.36 189.32 C 313.61 188.09 321.78 186.26 330.08 185.47 C 329.47 195.12 330.68 204.71 330.65 214.34 C 332.82 214.58 334.99 214.44 337.13 214.03 C 352.15 211.56 367.26 209.67 382.28 207.17 C 382.37 197.01 382.44 186.84 382.24 176.68 C 364.80 179.09 347.56 182.72 330.09 184.96 C 329.82 177.16 330.98 169.19 329.37 161.50 C 329.48 159.49 329.47 157.48 329.48 155.47 C 322.27 156.52 315.05 157.78 307.99 159.55 Z" />
<path fill="#c6774b" opacity="1.00" d=" M 7.85 266.01 C 20.68 260.00 33.25 253.39 46.19 247.61 C 46.63 258.44 45.47 269.23 45.61 280.05 C 44.89 286.38 45.16 292.73 44.90 299.07 C 43.92 307.02 44.81 315.04 43.88 322.99 C 43.83 329.34 43.81 335.69 43.15 342.02 C 43.46 352.66 41.77 363.27 42.82 373.91 C 89.75 377.82 136.62 382.40 183.53 386.57 C 208.18 388.96 232.89 390.80 257.50 393.50 C 251.61 393.56 245.91 395.24 240.05 395.56 C 230.31 396.02 220.59 397.04 210.98 398.60 C 204.01 398.79 197.06 397.53 190.09 397.18 C 142.73 393.20 95.37 389.33 48.02 385.33 C 32.63 384.24 17.28 382.46 1.87 381.71 C 1.98 375.75 1.59 369.78 2.06 363.84 C 3.10 356.61 1.77 349.25 2.93 342.02 C 3.41 336.66 2.75 331.27 3.21 325.91 C 4.34 319.38 3.20 312.73 3.92 306.18 C 4.95 299.19 3.60 292.08 4.80 285.11 C 5.21 279.42 4.67 273.70 5.01 268.00 C 5.43 266.81 6.90 266.63 7.85 266.01 M 14.24 378.12 C 13.70 379.74 14.24 380.30 15.87 379.79 C 16.42 378.16 15.87 377.60 14.24 378.12 Z" />
<path fill="#c6774b" opacity="1.00" d=" M 361.48 311.09 C 378.39 309.35 395.34 308.09 412.27 306.54 C 411.13 316.17 412.09 325.87 411.62 335.54 C 404.06 335.40 396.56 336.57 389.00 336.54 C 380.19 337.72 371.31 338.35 362.42 338.53 C 361.87 335.70 361.50 332.81 361.84 329.94 C 362.65 323.66 361.55 317.38 361.48 311.09 Z" />
<path fill="#c6774b" opacity="1.00" d=" M 621.05 406.52 C 625.67 406.50 630.27 403.53 634.81 405.53 C 652.55 462.90 670.58 520.17 688.28 577.55 L 688.43 578.67 C 679.95 578.29 671.52 579.24 663.06 579.32 C 641.02 580.29 618.95 580.97 596.92 581.95 C 592.54 582.48 588.14 582.10 583.75 582.25 C 568.60 544.32 553.79 506.25 538.80 468.26 C 537.26 464.34 535.42 460.52 534.52 456.39 C 531.56 443.90 525.37 432.47 521.22 420.37 C 524.71 419.22 528.35 418.60 532.04 418.56 C 536.77 418.48 541.31 416.87 546.04 416.66 C 548.87 416.41 552.13 416.70 554.19 414.30 C 562.26 416.00 570.01 412.57 578.03 412.43 C 582.39 412.01 586.62 410.72 591.03 410.65 C 595.45 410.56 599.62 408.82 604.04 408.69 C 609.80 408.64 615.28 406.53 621.05 406.52 Z" />
</g>
<g id="#f0ccb6fe">
<path fill="#f0ccb6" opacity="1.00" d=" M 408.03 140.17 C 418.18 140.14 427.94 136.82 437.98 135.72 C 437.89 146.22 437.86 156.73 437.98 167.23 C 428.51 169.07 418.95 170.38 409.47 172.16 C 409.61 162.02 409.06 151.85 409.80 141.72 C 408.37 141.21 406.85 140.90 405.35 141.19 C 398.53 142.43 391.76 144.02 384.87 144.80 L 384.03 144.90 C 392.04 143.40 400.13 142.15 408.03 140.17 Z" />
</g>
<g id="#fee9abfe">
<path fill="#fee9ab" opacity="1.00" d=" M 479.08 139.37 C 486.79 144.88 494.29 150.69 502.00 156.20 C 502.00 161.15 502.01 166.09 501.95 171.04 C 502.03 172.68 501.72 174.54 502.74 175.98 C 502.69 188.96 502.63 201.95 502.75 214.93 C 503.10 215.19 503.80 215.71 504.15 215.96 C 510.35 219.81 516.81 223.23 523.00 227.10 C 522.97 236.29 522.96 245.47 523.00 254.66 C 526.57 256.32 530.13 258.02 533.53 260.03 C 529.29 261.12 524.93 261.70 520.71 262.85 C 518.18 263.44 516.85 265.85 515.73 267.97 C 514.11 271.09 512.26 274.06 510.32 276.98 C 504.71 274.22 498.87 271.99 493.13 269.55 C 484.83 265.80 476.15 262.90 468.07 258.70 C 467.84 239.45 468.64 220.18 467.45 200.97 C 467.47 188.23 467.53 175.50 467.43 162.77 L 468.53 163.48 C 472.32 165.90 475.99 168.53 479.92 170.73 C 480.32 160.24 478.94 149.84 479.08 139.37 Z" />
<path fill="#fee9ab" opacity="1.00" d=" M 46.19 247.28 C 61.22 249.78 76.17 252.76 91.18 255.37 C 94.86 256.07 98.53 256.77 102.22 257.38 C 154.73 267.08 207.29 276.56 259.81 286.22 C 261.19 286.50 262.58 286.78 263.95 287.17 C 263.07 299.44 263.48 311.75 263.02 324.03 C 263.50 332.39 261.30 340.60 261.79 348.96 C 261.17 363.82 261.34 378.69 261.08 393.56 C 259.88 393.54 258.69 393.52 257.50 393.50 C 232.89 390.80 208.18 388.96 183.53 386.57 C 136.62 382.40 89.75 377.82 42.82 373.91 C 41.77 363.27 43.46 352.66 43.15 342.02 C 43.81 335.69 43.83 329.34 43.88 322.99 C 44.81 315.04 43.92 307.02 44.90 299.07 C 45.16 292.73 44.89 286.38 45.61 280.05 C 45.47 269.23 46.63 258.44 46.19 247.61 L 46.19 247.28 Z" />
</g>
<g id="#64386efe">
<path fill="#64386e" opacity="1.00" d=" M 405.35 141.19 C 406.85 140.90 408.37 141.21 409.80 141.72 C 409.06 151.85 409.61 162.02 409.47 172.16 C 406.23 172.61 403.04 173.45 399.76 173.40 C 400.18 173.11 401.03 172.55 401.45 172.26 C 403.55 171.54 405.75 171.18 407.94 170.79 C 408.03 161.29 408.02 151.79 407.83 142.30 C 399.54 143.99 391.20 145.39 382.93 147.14 C 382.92 152.24 383.03 157.35 382.47 162.43 C 380.97 157.08 381.97 151.45 381.78 145.98 C 382.55 145.68 384.10 145.10 384.87 144.80 C 391.76 144.02 398.53 142.43 405.35 141.19 Z" />
</g>
<g id="#643f8dfe">
<path fill="#643f8d" opacity="1.00" d=" M 382.93 147.14 C 391.20 145.39 399.54 143.99 407.83 142.30 C 408.02 151.79 408.03 161.29 407.94 170.79 C 405.75 171.18 403.55 171.54 401.45 172.26 C 401.03 172.55 400.18 173.11 399.76 173.40 C 394.22 174.94 388.25 175.13 382.59 176.50 C 382.21 171.82 382.22 167.11 382.47 162.43 C 383.03 157.35 382.92 152.24 382.93 147.14 Z" />
<path fill="#643f8d" opacity="1.00" d=" M 307.99 159.55 C 315.05 157.78 322.27 156.52 329.48 155.47 C 329.47 157.48 329.48 159.49 329.37 161.50 C 328.50 168.87 329.72 176.33 328.66 183.67 C 326.47 185.29 323.55 184.92 321.00 185.35 C 316.95 185.64 313.10 187.16 309.04 187.30 C 306.13 187.50 306.31 183.93 306.11 181.93 C 306.06 175.94 305.97 169.94 306.07 163.94 C 305.93 162.22 307.03 160.85 307.99 159.55 Z" />
</g>
<g id="#f0cdb7fe">
<path fill="#f0cdb7" opacity="1.00" d=" M 280.75 164.23 C 288.77 162.96 296.77 161.48 304.70 159.73 C 304.94 169.59 304.16 179.49 305.36 189.32 C 297.09 190.41 288.94 192.26 280.65 193.16 C 280.63 183.51 280.43 173.86 280.75 164.23 Z" />
</g>
<g id="#6a3d6efe">
<path fill="#6a3d6e" opacity="1.00" d=" M 304.70 159.73 C 305.52 159.68 307.17 159.60 307.99 159.55 C 307.03 160.85 305.93 162.22 306.07 163.94 C 305.97 169.94 306.06 175.94 306.11 181.93 C 306.31 183.93 306.13 187.50 309.04 187.30 C 313.10 187.16 316.95 185.64 321.00 185.35 C 323.55 184.92 326.47 185.29 328.66 183.67 C 329.72 176.33 328.50 168.87 329.37 161.50 C 330.98 169.19 329.82 177.16 330.09 184.96 L 330.08 185.47 C 321.78 186.26 313.61 188.09 305.36 189.32 C 304.16 179.49 304.94 169.59 304.70 159.73 Z" />
</g>
<g id="#643e0ffe">
<path fill="#643e0f" opacity="1.00" d=" M 502.74 175.98 C 503.54 177.17 504.19 178.48 504.08 179.97 C 504.08 191.97 503.94 203.97 504.15 215.96 C 503.80 215.71 503.10 215.19 502.75 214.93 C 502.63 201.95 502.69 188.96 502.74 175.98 Z" />
</g>
<g id="#a05b33fe">
<path fill="#a05b33" opacity="1.00" d=" M 330.09 184.96 C 347.56 182.72 364.80 179.09 382.24 176.68 C 382.44 186.84 382.37 197.01 382.28 207.17 C 367.26 209.67 352.15 211.56 337.13 214.03 C 334.99 214.44 332.82 214.58 330.65 214.34 C 330.68 204.71 329.47 195.12 330.08 185.47 L 330.09 184.96 Z" />
</g>
<g id="#acedeefe">
<path fill="#acedee" opacity="1.00" d=" M 549.43 256.34 C 573.74 250.75 598.00 244.86 622.39 239.65 L 621.90 240.63 C 614.35 259.16 608.05 278.23 601.05 296.99 C 576.37 302.15 551.58 306.72 526.87 311.70 C 511.45 314.54 496.14 318.12 480.65 320.49 C 483.35 316.21 485.61 311.68 488.16 307.31 C 490.11 306.56 493.03 306.71 493.88 304.36 C 499.18 295.14 504.80 286.09 510.32 276.98 C 512.26 274.06 514.11 271.09 515.73 267.97 C 516.85 265.85 518.18 263.44 520.71 262.85 C 524.93 261.70 529.29 261.12 533.53 260.03 C 538.82 258.80 544.11 257.53 549.43 256.34 Z" />
<path fill="#acedee" opacity="1.00" d=" M 232.43 724.44 L 232.65 724.50 C 271.39 735.20 310.25 745.42 349.07 755.85 L 349.11 756.05 C 333.91 773.65 318.89 791.40 303.82 809.11 C 265.03 797.14 226.40 784.61 187.64 772.52 C 186.24 772.03 184.87 771.46 183.53 770.85 C 194.00 761.59 203.78 751.55 214.09 742.12 C 220.14 736.16 226.53 730.54 232.43 724.44 Z" />
</g>
<g id="#15bebbfe">
<path fill="#15bebb" opacity="1.00" d=" M 601.05 296.99 C 608.05 278.23 614.35 259.16 621.90 240.63 C 625.54 250.26 627.65 260.40 630.78 270.21 C 637.37 293.76 644.45 317.19 650.85 340.79 C 645.11 361.34 640.19 382.11 634.25 402.60 C 630.68 394.07 628.63 385.03 625.64 376.30 C 617.49 349.85 609.08 323.48 601.05 296.99 Z" />
<path fill="#15bebb" opacity="1.00" d=" M 266.39 288.22 C 269.04 288.52 271.69 288.74 274.35 288.98 C 280.12 289.87 285.88 290.85 291.59 292.09 C 291.96 300.40 291.57 308.73 291.76 317.05 C 309.34 315.70 326.89 314.04 344.45 312.53 C 350.12 311.94 355.80 311.56 361.48 311.09 C 361.55 317.38 362.65 323.66 361.84 329.94 C 361.50 332.81 361.87 335.70 362.42 338.53 C 371.31 338.35 380.19 337.72 389.00 336.54 C 396.56 336.57 404.06 335.40 411.62 335.54 C 412.09 325.87 411.13 316.17 412.27 306.54 C 412.58 306.52 413.20 306.48 413.51 306.46 C 421.39 307.29 429.36 306.69 437.20 305.64 C 435.04 305.31 432.88 305.00 430.72 304.82 C 433.06 304.60 435.41 304.43 437.76 304.23 C 456.07 302.81 474.35 300.77 492.67 299.56 C 493.64 300.92 493.57 302.76 493.88 304.36 C 493.03 306.71 490.11 306.56 488.16 307.31 C 485.61 311.68 483.35 316.21 480.65 320.49 L 480.49 320.80 C 483.56 328.04 486.49 335.34 489.36 342.67 C 490.99 346.98 493.49 351.16 493.42 355.91 C 493.35 372.27 493.43 388.64 493.36 405.00 C 493.37 410.34 494.19 415.64 494.08 420.99 C 493.93 438.32 494.17 455.65 494.01 472.98 C 493.73 480.00 494.89 486.98 494.64 494.01 C 494.58 511.35 494.67 528.69 494.59 546.02 C 494.46 553.22 495.81 560.39 495.10 567.59 C 448.06 564.85 401.04 561.94 354.00 559.18 C 349.71 558.79 345.40 558.54 341.09 558.65 C 340.47 567.59 342.25 576.50 341.46 585.44 C 333.68 584.90 325.92 583.91 318.11 583.86 C 318.54 592.59 319.07 601.31 318.91 610.06 C 318.65 610.05 318.13 610.02 317.88 610.00 C 310.58 609.75 303.33 608.65 296.04 608.31 C 296.06 596.51 296.02 584.72 296.07 572.93 C 294.76 559.66 295.65 546.27 295.43 532.94 C 294.23 519.70 295.02 506.35 294.82 493.06 C 293.47 479.76 294.47 466.34 294.15 452.99 C 292.56 437.14 294.61 421.12 292.92 405.29 C 292.86 402.43 292.88 399.58 292.88 396.73 C 282.91 395.49 272.88 394.64 262.86 393.99 C 263.10 387.87 262.53 381.70 263.46 375.61 C 264.55 368.79 263.66 361.85 264.47 355.00 C 264.95 341.02 264.27 326.98 265.71 313.04 C 265.59 304.75 266.52 296.50 266.39 288.22 Z" />
</g>
<g id="#074763fe">
<path fill="#074763" opacity="1.00" d=" M 438.29 274.79 C 456.62 273.59 474.80 270.78 493.13 269.55 C 498.87 271.99 504.71 274.22 510.32 276.98 C 504.80 286.09 499.18 295.14 493.88 304.36 C 493.57 302.76 493.64 300.92 492.67 299.56 C 474.35 300.77 456.07 302.81 437.76 304.23 C 437.94 294.42 437.30 284.57 438.29 274.79 Z" />
<path fill="#074763" opacity="1.00" d=" M 308.62 288.48 C 318.17 287.80 327.68 286.63 337.17 285.49 C 338.17 294.24 336.82 303.08 338.10 311.81 C 340.21 312.07 342.32 312.34 344.45 312.53 C 326.89 314.04 309.34 315.70 291.76 317.05 C 291.57 308.73 291.96 300.40 291.59 292.09 C 291.54 291.59 291.45 290.58 291.40 290.08 C 297.19 290.21 302.89 289.11 308.62 288.48 Z" />
</g>
<g id="#392b27fe">
<path fill="#392b27" opacity="1.00" d=" M 354.99 283.39 C 382.76 280.56 410.52 277.64 438.29 274.79 C 437.30 284.57 437.94 294.42 437.76 304.23 C 435.41 304.43 433.06 304.60 430.72 304.82 C 424.99 305.43 419.23 305.78 413.51 306.46 C 413.20 306.48 412.58 306.52 412.27 306.54 C 395.34 308.09 378.39 309.35 361.48 311.09 C 355.80 311.56 350.12 311.94 344.45 312.53 C 342.32 312.34 340.21 312.07 338.10 311.81 C 336.82 303.08 338.17 294.24 337.17 285.49 C 343.07 284.46 349.06 284.19 354.99 283.39 Z" />
</g>
<g id="#cbeebefe">
<path fill="#cbeebe" opacity="1.00" d=" M 263.95 287.17 L 265.18 286.95 C 265.31 290.57 265.26 294.21 264.88 297.83 C 264.18 304.15 264.96 310.53 264.32 316.86 C 263.60 323.60 264.43 330.41 263.63 337.15 C 262.90 343.41 263.96 349.75 262.93 355.99 C 261.40 362.44 262.29 369.11 262.26 375.66 C 261.78 381.62 262.15 387.60 262.07 393.56 L 261.08 393.56 C 261.34 378.69 261.17 363.82 261.79 348.96 C 261.30 340.60 263.50 332.39 263.02 324.03 C 263.48 311.75 263.07 299.44 263.95 287.17 Z" />
</g>
<g id="#37b3a1f8">
<path fill="#37b3a1" opacity="0.97" d=" M 265.18 286.95 C 268.19 287.79 271.32 288.16 274.35 288.98 C 271.69 288.74 269.04 288.52 266.39 288.22 C 266.52 296.50 265.59 304.75 265.71 313.04 C 264.27 326.98 264.95 341.02 264.47 355.00 C 263.66 361.85 264.55 368.79 263.46 375.61 C 262.53 381.70 263.10 387.87 262.86 393.99 L 262.05 394.14 L 262.07 393.56 C 262.15 387.60 261.78 381.62 262.26 375.66 C 263.70 369.19 262.63 362.54 262.93 355.99 C 263.96 349.75 262.90 343.41 263.63 337.15 C 264.43 330.41 263.60 323.60 264.32 316.86 C 264.96 310.53 264.18 304.15 264.88 297.83 C 265.26 294.21 265.31 290.57 265.18 286.95 Z" />
</g>
<g id="#0b6eaafe">
<path fill="#0b6eaa" opacity="1.00" d=" M 526.87 311.70 C 551.58 306.72 576.37 302.15 601.05 296.99 C 609.08 323.48 617.49 349.85 625.64 376.30 C 628.63 385.03 630.68 394.07 634.25 402.60 C 634.19 402.79 634.08 403.16 634.02 403.35 C 607.39 406.94 580.76 410.33 554.19 414.30 C 544.07 415.16 534.07 417.34 523.94 417.80 C 522.73 417.72 520.29 417.11 520.08 418.85 C 519.74 420.38 520.02 421.93 520.67 423.36 C 524.52 432.51 528.03 441.81 531.77 451.01 C 533.32 454.52 533.93 458.33 534.00 462.15 C 534.27 468.42 533.66 474.73 534.68 480.96 C 534.77 500.32 534.66 519.68 534.73 539.04 C 535.32 543.86 535.41 548.70 535.28 553.55 C 523.58 557.03 512.26 561.69 500.65 565.46 C 498.45 566.27 495.06 567.04 495.43 570.10 C 495.35 587.74 495.42 605.39 495.40 623.04 C 495.71 624.95 494.26 627.38 492.14 626.04 C 491.80 613.42 492.82 600.80 492.58 588.18 C 481.29 599.78 471.58 612.79 460.76 624.81 C 449.28 638.32 437.84 651.86 426.31 665.33 C 419.64 672.70 413.71 680.71 407.00 688.06 C 387.59 710.57 368.55 733.41 349.07 755.85 C 310.25 745.42 271.39 735.20 232.65 724.50 C 259.39 698.79 286.56 673.51 313.20 647.70 C 310.15 644.08 307.04 640.51 304.11 636.80 C 309.26 637.59 314.16 639.47 319.24 640.51 C 321.83 640.47 323.50 637.93 325.33 636.40 C 333.07 628.46 341.88 621.57 349.12 613.16 C 339.07 611.90 328.96 611.25 318.91 610.06 C 319.07 601.31 318.54 592.59 318.11 583.86 C 325.92 583.91 333.68 584.90 341.46 585.44 C 342.25 576.50 340.47 567.59 341.09 558.65 C 345.40 558.54 349.71 558.79 354.00 559.18 C 401.04 561.94 448.06 564.85 495.10 567.59 C 495.81 560.39 494.46 553.22 494.59 546.02 C 494.67 528.69 494.58 511.35 494.64 494.01 C 494.89 486.98 493.73 480.00 494.01 472.98 C 494.17 455.65 493.93 438.32 494.08 420.99 C 494.19 415.64 493.37 410.34 493.36 405.00 C 493.43 388.64 493.35 372.27 493.42 355.91 C 493.49 351.16 490.99 346.98 489.36 342.67 C 486.49 335.34 483.56 328.04 480.49 320.80 L 480.65 320.49 C 496.14 318.12 511.45 314.54 526.87 311.70 Z" />
</g>
<g id="#36b4b1ff">
<path fill="#36b4b1" opacity="1.00" d=" M 413.51 306.46 C 419.23 305.78 424.99 305.43 430.72 304.82 C 432.88 305.00 435.04 305.31 437.20 305.64 C 429.36 306.69 421.39 307.29 413.51 306.46 Z" />
</g>
<g id="#fee9aafe">
<path fill="#fee9aa" opacity="1.00" d=" M 650.85 340.79 C 653.28 348.28 655.27 355.91 657.53 363.46 C 658.55 367.15 659.59 370.84 660.62 374.54 C 660.93 375.50 661.26 376.47 661.59 377.43 C 666.03 393.82 671.01 410.07 675.49 426.45 C 676.82 431.12 678.37 435.73 679.52 440.45 C 680.21 442.81 680.99 445.15 681.63 447.53 C 682.81 452.23 684.27 456.86 685.69 461.50 C 689.60 475.84 693.85 490.10 697.94 504.39 C 699.17 507.48 698.89 510.86 698.15 514.04 C 695.07 535.58 691.55 557.06 688.61 578.62 L 688.28 577.55 C 670.58 520.17 652.55 462.90 634.81 405.53 C 634.61 404.98 634.22 403.89 634.02 403.35 C 634.08 403.16 634.19 402.79 634.25 402.60 C 640.19 382.11 645.11 361.34 650.85 340.79 Z" />
</g>
<g id="#95eecdfe">
<path fill="#95eecd" opacity="1.00" d=" M 262.26 375.66 C 262.29 369.11 261.40 362.44 262.93 355.99 C 262.63 362.54 263.70 369.19 262.26 375.66 Z" />
</g>
<g id="#a96540da">
<path fill="#a96540" opacity="0.85" d=" M 14.24 378.12 C 15.87 377.60 16.42 378.16 15.87 379.79 C 14.24 380.30 13.70 379.74 14.24 378.12 Z" />
</g>
<g id="#406f88fe">
<path fill="#406f88" opacity="1.00" d=" M 257.50 393.50 C 258.69 393.52 259.88 393.54 261.08 393.56 L 262.07 393.56 L 262.05 394.14 C 255.39 395.13 248.76 396.67 241.99 396.62 C 235.60 396.85 229.19 397.64 223.05 399.40 C 219.03 400.28 214.97 399.01 210.98 398.60 C 220.59 397.04 230.31 396.02 240.05 395.56 C 245.91 395.24 251.61 393.56 257.50 393.50 Z" />
</g>
<g id="#0c6fabfe">
<path fill="#0c6fab" opacity="1.00" d=" M 262.05 394.14 L 262.86 393.99 C 272.88 394.64 282.91 395.49 292.88 396.73 C 292.88 399.58 292.86 402.43 292.92 405.29 C 288.22 405.47 283.54 405.05 278.88 404.58 C 259.94 403.02 241.01 401.42 222.07 399.82 L 223.05 399.40 C 229.19 397.64 235.60 396.85 241.99 396.62 C 248.76 396.67 255.39 395.13 262.05 394.14 Z" />
</g>
<g id="#958073fe">
<path fill="#958073" opacity="1.00" d=" M 554.19 414.30 C 580.76 410.33 607.39 406.94 634.02 403.35 C 634.22 403.89 634.61 404.98 634.81 405.53 C 630.27 403.53 625.67 406.50 621.05 406.52 C 615.28 406.53 609.80 408.64 604.04 408.69 C 599.62 408.82 595.45 410.56 591.03 410.65 C 586.62 410.72 582.39 412.01 578.03 412.43 C 570.01 412.57 562.26 416.00 554.19 414.30 Z" />
</g>
<g id="#967f71fe">
<path fill="#967f71" opacity="1.00" d=" M 523.94 417.80 C 534.07 417.34 544.07 415.16 554.19 414.30 C 552.13 416.70 548.87 416.41 546.04 416.66 C 541.31 416.87 536.77 418.48 532.04 418.56 C 528.35 418.60 524.71 419.22 521.22 420.37 C 525.37 432.47 531.56 443.90 534.52 456.39 C 534.30 458.30 534.08 460.22 534.00 462.15 C 533.93 458.33 533.32 454.52 531.77 451.01 C 528.03 441.81 524.52 432.51 520.67 423.36 C 520.02 421.93 519.74 420.38 520.08 418.85 C 521.40 419.46 523.13 419.07 523.94 417.80 Z" />
</g>
<g id="#516871fe">
<path fill="#516871" opacity="1.00" d=" M 520.08 418.85 C 520.29 417.11 522.73 417.72 523.94 417.80 C 523.13 419.07 521.40 419.46 520.08 418.85 Z" />
</g>
<g id="#37367ffe">
<path fill="#37367f" opacity="1.00" d=" M 500.65 565.46 C 512.26 561.69 523.58 557.03 535.28 553.55 C 535.36 571.09 535.20 588.64 535.36 606.18 C 528.57 609.82 521.62 613.16 514.85 616.82 C 517.06 632.05 519.14 647.32 521.62 662.51 C 521.69 663.87 521.74 665.25 521.80 666.63 C 515.74 675.12 509.80 683.69 503.72 692.17 C 503.91 692.44 504.29 692.98 504.48 693.26 C 499.30 697.33 496.31 703.35 492.50 708.58 C 489.15 713.14 487.94 718.76 485.72 723.87 C 482.57 730.95 480.45 738.49 476.50 745.20 C 473.97 751.85 470.76 758.28 469.22 765.27 C 468.93 765.43 468.34 765.76 468.04 765.92 C 465.33 762.09 462.83 758.07 459.33 754.89 C 457.86 756.96 456.41 759.05 454.97 761.14 C 455.58 761.62 456.20 762.09 456.83 762.57 C 451.88 762.98 450.63 768.90 447.52 771.97 C 423.99 804.77 401.06 838.01 377.49 870.78 C 375.39 867.12 374.91 862.88 373.89 858.86 C 366.69 828.98 359.92 799.02 352.67 769.15 C 351.78 764.70 350.56 760.34 349.11 756.05 L 349.07 755.85 C 368.55 733.41 387.59 710.57 407.00 688.06 C 413.71 680.71 419.64 672.70 426.31 665.33 C 437.84 651.86 449.28 638.32 460.76 624.81 C 471.58 612.79 481.29 599.78 492.58 588.18 C 492.82 600.80 491.80 613.42 492.14 626.04 C 494.26 627.38 495.71 624.95 495.40 623.04 C 495.42 605.39 495.35 587.74 495.43 570.10 C 495.06 567.04 498.45 566.27 500.65 565.46 Z" />
</g>
<g id="#373780fe">
<path fill="#373780" opacity="1.00" d=" M 317.88 610.00 C 318.13 610.02 318.65 610.05 318.91 610.06 C 328.96 611.25 339.07 611.90 349.12 613.16 C 341.88 621.57 333.07 628.46 325.33 636.40 C 323.50 637.93 321.83 640.47 319.24 640.51 C 314.16 639.47 309.26 637.59 304.11 636.80 L 303.41 636.66 C 308.51 627.93 312.91 618.81 317.88 610.00 Z" />
</g>
<g id="#474747fe">
<path fill="#474747" opacity="1.00" d=" M 492.50 708.58 C 496.31 703.35 499.30 697.33 504.48 693.26 C 506.15 696.61 508.12 699.80 510.04 703.03 C 510.75 704.08 510.97 705.37 510.36 706.56 C 502.34 726.96 494.66 747.50 486.69 767.92 C 484.76 773.20 482.82 778.49 480.40 783.56 C 469.59 779.30 458.34 776.23 447.52 771.97 C 450.63 768.90 451.88 762.98 456.83 762.57 C 460.37 764.25 464.11 765.60 468.04 765.92 C 468.34 765.76 468.93 765.43 469.22 765.27 C 470.76 758.28 473.97 751.85 476.50 745.20 C 480.45 738.49 482.57 730.95 485.72 723.87 C 487.94 718.76 489.15 713.14 492.50 708.58 Z" />
</g>
<g id="#0e6ea8fe">
<path fill="#0e6ea8" opacity="1.00" d=" M 459.33 754.89 C 462.83 758.07 465.33 762.09 468.04 765.92 C 464.11 765.60 460.37 764.25 456.83 762.57 C 456.20 762.09 455.58 761.62 454.97 761.14 C 456.41 759.05 457.86 756.96 459.33 754.89 Z" />
</g>
<g id="#484848fe">
<path fill="#484848" opacity="1.00" d=" M 349.11 756.05 C 350.56 760.34 351.78 764.70 352.67 769.15 C 359.92 799.02 366.69 828.98 373.89 858.86 C 374.91 862.88 375.39 867.12 377.49 870.78 L 377.58 870.97 C 366.45 886.39 355.67 902.06 344.62 917.54 C 341.54 921.73 338.85 926.22 335.36 930.09 C 334.34 923.32 332.17 916.82 330.58 910.18 C 325.09 889.79 319.80 869.34 314.24 848.96 C 311.00 835.62 306.92 822.49 303.82 809.11 C 318.89 791.40 333.91 773.65 349.11 756.05 Z" />
</g>
<g id="#313131fe">
<path fill="#313131" opacity="1.00" d=" M 183.18 770.68 L 183.53 770.85 C 184.87 771.46 186.24 772.03 187.64 772.52 C 226.40 784.61 265.03 797.14 303.82 809.11 C 306.92 822.49 311.00 835.62 314.24 848.96 C 319.80 869.34 325.09 889.79 330.58 910.18 C 332.17 916.82 334.34 923.32 335.36 930.09 C 313.11 920.58 290.42 912.18 268.07 902.94 C 251.91 896.64 235.86 890.07 219.72 883.73 C 213.44 863.38 206.62 843.20 200.21 822.88 C 194.45 805.51 189.12 787.99 183.18 770.68 Z" />
</g>
</svg>
