<?xml version="1.0" encoding="iso-8859-1"?>
<!-- Generator: Adobe Illustrator 19.0.0, SVG Export Plug-In . SVG Version: 6.00 Build 0)  -->
<svg version="1.1" id="Layer_1" xmlns="http://www.w3.org/2000/svg" xmlns:xlink="http://www.w3.org/1999/xlink" x="0px" y="0px"
	 viewBox="0 0 491.52 491.52" style="enable-background:new 0 0 491.52 491.52;" xml:space="preserve">
<path style="fill:#E1E6E9;" d="M368.991,17.246H122.529c-14.767,0-26.739,11.972-26.739,26.739v420.796
	c0,14.768,11.972,26.739,26.739,26.739h246.462c14.768,0,26.739-11.971,26.739-26.739V43.985
	C395.73,29.218,383.759,17.246,368.991,17.246z"/>
<path style="fill:#EBF0F3;" d="M368.991,0H122.529C107.762,0,95.79,11.972,95.79,26.739v420.796
	c0,14.768,11.972,26.739,26.739,26.739h246.462c14.768,0,26.739-11.971,26.739-26.739V26.739C395.73,11.972,383.759,0,368.991,0z"/>
<path style="fill:#64798A;" d="M122.526,403.439c-0.48,0-0.867-0.329-0.867-0.736V45.7c0-0.407,0.387-0.739,0.867-0.739h246.467
	c0.48,0,0.867,0.332,0.867,0.739v357.003c0,0.407-0.387,0.736-0.867,0.736H122.526z"/>
<path style="fill:#3A556A;" d="M245.76,463.877c-13.145,0-23.84-10.695-23.84-23.844c0-13.149,10.695-23.844,23.84-23.844
	c13.145,0,23.84,10.695,23.84,23.844C269.6,453.183,258.905,463.877,245.76,463.877z M245.76,424.812
	c-8.387,0-15.217,6.829-15.217,15.221c0,8.392,6.829,15.221,15.217,15.221c8.387,0,15.217-6.829,15.217-15.221
	C260.977,431.642,254.147,424.812,245.76,424.812z"/>
<path style="fill:#64798A;" d="M285.873,28.465h-80.226c-2.06,0-3.73-1.67-3.73-3.73v-5.562c0-2.06,1.67-3.73,3.73-3.73h80.226
	c2.06,0,3.73,1.67,3.73,3.73v5.562C289.603,26.795,287.933,28.465,285.873,28.465z"/>
<circle style="fill:#F6C358;" cx="245.76" cy="143.171" r="73.462"/>
<circle style="fill:#FCD462;" cx="245.76" cy="143.171" r="61.204"/>
<g>
	<path style="fill:#DC8744;" d="M245.759,204.377c22.064,0,41.343-11.714,52.112-29.223c-11.019-17.129-30.232-28.485-52.112-28.485
		s-41.093,11.356-52.112,28.485C204.416,192.664,223.695,204.377,245.759,204.377z"/>
	<circle style="fill:#DC8744;" cx="245.76" cy="112.015" r="19.338"/>
</g>
<g>
	<rect x="151.828" y="235.331" style="fill:#EBF0F3;" width="187.863" height="33.884"/>
	<rect x="151.828" y="283.238" style="fill:#EBF0F3;" width="187.863" height="33.884"/>
</g>
<rect x="195.635" y="335.309" style="fill:#2F4859;" width="100.234" height="33.884"/>
<g>
</g>
<g>
</g>
<g>
</g>
<g>
</g>
<g>
</g>
<g>
</g>
<g>
</g>
<g>
</g>
<g>
</g>
<g>
</g>
<g>
</g>
<g>
</g>
<g>
</g>
<g>
</g>
<g>
</g>
</svg>
