<?xml version="1.0" encoding="UTF-8" standalone="no"?>
<svg
   xmlns:dc="http://purl.org/dc/elements/1.1/"
   xmlns:cc="http://creativecommons.org/ns#"
   xmlns:rdf="http://www.w3.org/1999/02/22-rdf-syntax-ns#"
   xmlns:svg="http://www.w3.org/2000/svg"
   xmlns="http://www.w3.org/2000/svg"
   xmlns:sodipodi="http://sodipodi.sourceforge.net/DTD/sodipodi-0.dtd"
   xmlns:inkscape="http://www.inkscape.org/namespaces/inkscape"
   width="704"
   height="704"
   viewBox="0 0 528 528"
   version="1.1"
   id="svg40"
   sodipodi:docname="text.svg"
   inkscape:version="0.92.4 (5da689c313, 2019-01-14)">
  <metadata
     id="metadata46">
    <rdf:RDF>
      <cc:Work
         rdf:about="">
        <dc:format>image/svg+xml</dc:format>
        <dc:type
           rdf:resource="http://purl.org/dc/dcmitype/StillImage" />
        <dc:title></dc:title>
      </cc:Work>
    </rdf:RDF>
  </metadata>
  <defs
     id="defs44" />
  <sodipodi:namedview
     pagecolor="#ffffff"
     bordercolor="#666666"
     borderopacity="1"
     objecttolerance="10"
     gridtolerance="10"
     guidetolerance="10"
     inkscape:pageopacity="0"
     inkscape:pageshadow="2"
     inkscape:window-width="3840"
     inkscape:window-height="2104"
     id="namedview42"
     showgrid="false"
     units="px"
     inkscape:zoom="0.33522727"
     inkscape:cx="-98.892655"
     inkscape:cy="471.32203"
     inkscape:window-x="-16"
     inkscape:window-y="-16"
     inkscape:window-maximized="1"
     inkscape:current-layer="svg40" />
  <g
     id="#ffffffff" />
  <g
     id="#efc849ff" />
  <g
     id="#f5f5f5ff">
    <path
       d="m 160.36,115.52 c 3.31,-1.54 7.04,-1.53 10.61,-1.54 41.76,0.11 83.53,-0.12 125.29,0.12 l -0.05,0.54 c -0.76,6.44 -0.36,12.94 -0.43,19.41 0,13.66 -0.1,27.33 0,40.99 -0.15,8.69 7.5,16.53 16.18,16.61 21.44,0.03 42.88,0.1 64.32,-0.04 -0.23,47.24 -0.01,94.49 -0.11,141.74 -13.47,-3.9 -28.3,-2.93 -41.09,2.84 -13.63,6.07 -24.8,17.45 -30.58,31.21 -6.44,15.08 -6.24,32.83 0.52,47.78 -46,0.01 -92,0.02 -138,-0.01 -9.09,0.22 -17.12,-8.12 -16.63,-17.18 0.01,-89.01 -0.02,-178.02 0.01,-267.03 -0.15,-6.53 3.96,-12.87 9.96,-15.44 m 18.04,94.09 c -3.08,1.23 -4.25,5.49 -2.16,8.09 1.3,1.8 3.64,2.05 5.68,2 55.03,-0.05 110.06,0.01 165.09,-0.03 2.76,0.24 5.53,-1.84 5.64,-4.7 0.44,-3.18 -2.47,-6.05 -5.62,-5.67 -54.99,-0.02 -109.98,0.02 -164.98,-0.02 -1.23,-0.04 -2.45,0.07 -3.65,0.33 m -0.25,27.57 c -4.75,1.85 -3.36,9.9 1.82,9.82 55.02,0.23 110.04,0 165.06,0.12 2.44,0.05 5.41,0.02 6.82,-2.37 2.44,-3.42 -0.68,-8.68 -4.89,-8.05 -53.65,-0.05 -107.29,0.01 -160.94,-0.03 -2.62,0.09 -5.35,-0.33 -7.87,0.51 m 0.03,26.09 c -3.12,1.32 -4.04,5.83 -1.62,8.24 1.29,1.65 3.51,1.7 5.43,1.69 55,-0.06 110.01,0.03 165.01,-0.04 2.96,0.33 5.73,-2.14 5.68,-5.11 0.1,-3 -2.7,-5.59 -5.69,-5.24 -53.98,-0.05 -107.97,0.02 -161.96,-0.03 -2.27,0.08 -4.67,-0.29 -6.85,0.49 m 0.19,27.29 c -2.87,1.1 -4.11,4.94 -2.45,7.52 1,1.8 3.08,2.64 5.07,2.52 55.35,-0.01 110.7,0.01 166.05,-0.01 2.76,0.23 5.47,-1.89 5.63,-4.71 0.4,-3.15 -2.52,-6.15 -5.71,-5.68 -53.65,-0.05 -107.3,0.01 -160.94,-0.03 -2.55,0.06 -5.17,-0.27 -7.65,0.39 m -0.98,27.93 c -2.76,1.82 -3.02,6.45 -0.24,8.38 1.31,1.19 3.16,1.08 4.81,1.15 28.36,-0.05 56.72,0 85.08,-0.03 2.29,0.18 4.81,-0.88 5.65,-3.16 1.51,-3.2 -1.12,-7.37 -4.71,-7.19 -28.66,-0.12 -57.32,0.01 -85.97,-0.06 -1.57,0.07 -3.28,-0.05 -4.62,0.91 z"
       id="path4"
       inkscape:connector-curvature="0"
       style="opacity:1;fill:#f5f5f5" />
  </g>
  <g
     id="#e1e1e1ff">
    <path
       d="m 296.21,114.64 c 7.45,6.57 14.42,13.68 21.61,20.54 15,14.31 29.89,28.75 44.88,43.07 4.46,4.52 9.3,8.66 13.58,13.36 -21.44,0.14 -42.88,0.07 -64.32,0.04 -8.68,-0.08 -16.33,-7.92 -16.18,-16.61 -0.1,-13.66 0,-27.33 0,-40.99 0.07,-6.47 -0.33,-12.97 0.43,-19.41 z"
       id="path7"
       inkscape:connector-curvature="0"
       style="opacity:1;fill:#e1e1e1" />
  </g>
  <g
     id="#c9c9c8ff">
    <path
       d="m 178.4,209.61 c 1.2,-0.26 2.42,-0.37 3.65,-0.33 55,0.04 109.99,0 164.98,0.02 3.15,-0.38 6.06,2.49 5.62,5.67 -0.11,2.86 -2.88,4.94 -5.64,4.7 -55.03,0.04 -110.06,-0.02 -165.09,0.03 -2.04,0.05 -4.38,-0.2 -5.68,-2 -2.09,-2.6 -0.92,-6.86 2.16,-8.09 z"
       id="path10"
       inkscape:connector-curvature="0"
       style="opacity:1;fill:#c9c9c8" />
    <path
       d="m 178.15,237.18 c 2.52,-0.84 5.25,-0.42 7.87,-0.51 53.65,0.04 107.29,-0.02 160.94,0.03 4.21,-0.63 7.33,4.63 4.89,8.05 -1.41,2.39 -4.38,2.42 -6.82,2.37 -55.02,-0.12 -110.04,0.11 -165.06,-0.12 -5.18,0.08 -6.57,-7.97 -1.82,-9.82 z"
       id="path12"
       inkscape:connector-curvature="0"
       style="opacity:1;fill:#c9c9c8" />
    <path
       d="m 178.18,263.27 c 2.18,-0.78 4.58,-0.41 6.85,-0.49 53.99,0.05 107.98,-0.02 161.96,0.03 2.99,-0.35 5.79,2.24 5.69,5.24 0.05,2.97 -2.72,5.44 -5.68,5.11 -55,0.07 -110.01,-0.02 -165.01,0.04 -1.92,0.01 -4.14,-0.04 -5.43,-1.69 -2.42,-2.41 -1.5,-6.92 1.62,-8.24 z"
       id="path14"
       inkscape:connector-curvature="0"
       style="opacity:1;fill:#c9c9c8" />
    <path
       d="m 178.37,290.56 c 2.48,-0.66 5.1,-0.33 7.65,-0.39 53.64,0.04 107.29,-0.02 160.94,0.03 3.19,-0.47 6.11,2.53 5.71,5.68 -0.16,2.82 -2.87,4.94 -5.63,4.71 -55.35,0.02 -110.7,0 -166.05,0.01 -1.99,0.12 -4.07,-0.72 -5.07,-2.52 -1.66,-2.58 -0.42,-6.42 2.45,-7.52 z"
       id="path16"
       inkscape:connector-curvature="0"
       style="opacity:1;fill:#c9c9c8" />
    <path
       d="m 177.39,318.49 c 1.34,-0.96 3.05,-0.84 4.62,-0.91 28.65,0.07 57.31,-0.06 85.97,0.06 3.59,-0.18 6.22,3.99 4.71,7.19 -0.84,2.28 -3.36,3.34 -5.65,3.16 -28.36,0.03 -56.72,-0.02 -85.08,0.03 -1.65,-0.07 -3.5,0.04 -4.81,-1.15 -2.78,-1.93 -2.52,-6.56 0.24,-8.38 z"
       id="path18"
       inkscape:connector-curvature="0"
       style="opacity:1;fill:#c9c9c8" />
  </g>
  <g
     id="#3cb881ff">
    <path
       d="m 335.08,336.19 c 12.79,-5.77 27.62,-6.74 41.09,-2.84 14.17,4.07 26.64,13.63 34.29,26.23 8.05,13.05 10.65,29.27 7.27,44.21 -3.62,16.57 -14.73,31.28 -29.66,39.32 -16.53,9.2 -37.32,9.55 -54.4,1.6 9.22,-9.02 18.3,-18.18 27.38,-27.33 1,-1.12 1.94,-2.31 2.64,-3.64 5.26,-10.3 10.4,-20.66 15.75,-30.91 4.13,-8.17 8.48,-16.24 12.26,-24.59 -8.09,4.06 -15.94,8.58 -23.75,13.13 -10.32,6.02 -20.98,11.46 -31.25,17.55 -2.13,1.38 -3.84,3.28 -5.62,5.07 -8.14,8.22 -16.39,16.34 -24.51,24.58 -0.53,-1.14 -1.06,-2.26 -1.55,-3.39 -6.76,-14.95 -6.96,-32.7 -0.52,-47.78 5.78,-13.76 16.95,-25.14 30.58,-31.21 z"
       id="path21"
       inkscape:connector-curvature="0"
       style="opacity:1;fill:#3cb881" />
  </g>
  <g
     id="#626463ff">
    <path
       d="m 367.95,371.37 c 7.81,-4.55 15.66,-9.07 23.75,-13.13 -3.78,8.35 -8.13,16.42 -12.26,24.59 -3.92,-3.73 -7.65,-7.66 -11.49,-11.46 z"
       id="path24"
       inkscape:connector-curvature="0"
       style="opacity:1;fill:#626463" />
  </g>
  <g
     id="#f7d98bff">
    <path
       d="m 336.7,388.92 c 10.27,-6.09 20.93,-11.53 31.25,-17.55 3.84,3.8 7.57,7.73 11.49,11.46 -5.35,10.25 -10.49,20.61 -15.75,30.91 -0.7,1.33 -1.64,2.52 -2.64,3.64 0.8,-2.01 1.53,-4.04 2.27,-6.06 -2.71,0.13 -5.4,0.31 -8.09,0.54 -0.06,-2.98 -0.11,-5.96 -0.17,-8.94 -2.95,-0.06 -5.89,-0.11 -8.84,-0.18 0.21,-2.75 0.35,-5.5 0.45,-8.24 -2.64,0.21 -5.28,0.45 -7.92,0.77 0.31,-2.43 0.64,-4.84 0.98,-7.25 -0.76,0.22 -2.28,0.67 -3.03,0.9 z"
       id="path27"
       inkscape:connector-curvature="0"
       style="opacity:1;fill:#f7d98b" />
  </g>
  <g
     id="#f06668ff">
    <path
       d="m 331.08,393.99 c 1.78,-1.79 3.49,-3.69 5.62,-5.07 0.75,-0.23 2.27,-0.68 3.03,-0.9 -0.34,2.41 -0.67,4.82 -0.98,7.25 -9.22,10.02 -19.19,19.36 -28.82,28.99 -1.19,-1.86 -2.31,-3.75 -3.36,-5.69 8.12,-8.24 16.37,-16.36 24.51,-24.58 z"
       id="path30"
       inkscape:connector-curvature="0"
       style="opacity:1;fill:#f06668" />
    <path
       d="m 316.49,432.25 c 9.8,-9.94 19.5,-20.01 29.73,-29.51 2.95,0.07 5.89,0.12 8.84,0.18 0.06,2.98 0.11,5.96 0.17,8.94 -9.12,10.02 -19.09,19.22 -28.51,28.95 -3.66,-2.54 -7.11,-5.37 -10.23,-8.56 z"
       id="path32"
       inkscape:connector-curvature="0"
       style="opacity:1;fill:#f06668" />
  </g>
  <g
     id="#e84849ff">
    <path
       d="m 338.75,395.27 c 2.64,-0.32 5.28,-0.56 7.92,-0.77 -0.1,2.74 -0.24,5.49 -0.45,8.24 -10.23,9.5 -19.93,19.57 -29.73,29.51 -2.37,-2.51 -4.56,-5.18 -6.56,-7.99 9.63,-9.63 19.6,-18.97 28.82,-28.99 z"
       id="path35"
       inkscape:connector-curvature="0"
       style="opacity:1;fill:#e84849" />
    <path
       d="m 355.23,411.86 c 2.69,-0.23 5.38,-0.41 8.09,-0.54 -0.74,2.02 -1.47,4.05 -2.27,6.06 -9.08,9.15 -18.16,18.31 -27.38,27.33 -2.39,-1.16 -4.73,-2.45 -6.95,-3.9 9.42,-9.73 19.39,-18.93 28.51,-28.95 z"
       id="path37"
       inkscape:connector-curvature="0"
       style="opacity:1;fill:#e84849" />
  </g>
</svg>
