<?xml version="1.0" encoding="UTF-8" standalone="no"?>
<!-- Generator: Adobe Illustrator 23.0.1, SVG Export Plug-In . SVG Version: 6.00 Build 0)  -->

<svg
   xmlns:ns="http://ns.adobe.com/SaveForWeb/1.0/"
   xmlns:dc="http://purl.org/dc/elements/1.1/"
   xmlns:cc="http://creativecommons.org/ns#"
   xmlns:rdf="http://www.w3.org/1999/02/22-rdf-syntax-ns#"
   xmlns:svg="http://www.w3.org/2000/svg"
   xmlns="http://www.w3.org/2000/svg"
   xmlns:sodipodi="http://sodipodi.sourceforge.net/DTD/sodipodi-0.dtd"
   xmlns:inkscape="http://www.inkscape.org/namespaces/inkscape"
   version="1.1"
   id="Layer_1"
   x="0px"
   y="0px"
   viewBox="0 0 35 35"
   xml:space="preserve"
   sodipodi:docname="excel.svg"
   width="35"
   height="35"
   inkscape:version="0.92.4 (5da689c313, 2019-01-14)"><defs
   id="defs38" /><sodipodi:namedview
   pagecolor="#ffffff"
   bordercolor="#666666"
   borderopacity="1"
   objecttolerance="10"
   gridtolerance="10"
   guidetolerance="10"
   inkscape:pageopacity="0"
   inkscape:pageshadow="2"
   inkscape:window-width="3840"
   inkscape:window-height="2104"
   id="namedview36"
   showgrid="false"
   inkscape:pagecheckerboard="true"
   inkscape:zoom="22.627417"
   inkscape:cx="27.539214"
   inkscape:cy="16.841926"
   inkscape:window-x="-16"
   inkscape:window-y="-16"
   inkscape:window-maximized="1"
   inkscape:current-layer="Layer_1" />
<style
   type="text/css"
   id="style2">
	.st0{fill:#FFFFFF;}
	.st1{fill:#217346;}
	.st2{fill-rule:evenodd;clip-rule:evenodd;fill:#217346;}
</style>
<metadata
   id="metadata4">
	<ns:sfw>
		<ns:slices />
		<ns:sliceSourceBounds
   bottomLeftOrigin="true"
   height="2080"
   width="2080"
   x="-1016"
   y="-1016" />
	</ns:sfw>
<rdf:RDF><cc:Work
     rdf:about=""><dc:format>image/svg+xml</dc:format><dc:type
       rdf:resource="http://purl.org/dc/dcmitype/StillImage" /><dc:title></dc:title></cc:Work></rdf:RDF></metadata>
<g
   id="_48"
   transform="matrix(0.01261028,0,0,0.01261028,4.1783323,4.7421424)">
	<rect
   x="1040"
   y="297.10001"
   class="st0"
   width="941"
   height="1436.2"
   id="rect6"
   style="fill:#ffffff" />
	<path
   class="st1"
   d="M 1981,297.1 V 1733.3 H 1040 V 297.1 h 941 m 0,-99 h -941 c -54.7,0 -99,44.3 -99,99 v 1436.2 c 0,54.7 44.3,99 99,99 h 941 c 54.7,0 99,-44.3 99,-99 V 297.1 c 0,-54.7 -44.3,-99 -99,-99 z"
   id="path8"
   inkscape:connector-curvature="0"
   style="fill:#217346" />
	<rect
   x="1485.7"
   y="445.70001"
   class="st1"
   width="346.70001"
   height="148.60001"
   id="rect10"
   style="fill:#217346" />
	<rect
   x="1485.7"
   y="693.29999"
   class="st1"
   width="346.70001"
   height="148.60001"
   id="rect12"
   style="fill:#217346" />
	<rect
   x="1485.7"
   y="941"
   class="st1"
   width="346.70001"
   height="148.60001"
   id="rect14"
   style="fill:#217346" />
	<rect
   x="1485.7"
   y="1188.6"
   class="st1"
   width="346.70001"
   height="148.60001"
   id="rect16"
   style="fill:#217346" />
	<rect
   x="1485.7"
   y="1436.2"
   class="st1"
   width="346.70001"
   height="148.60001"
   id="rect18"
   style="fill:#217346" />
	<rect
   x="1040"
   y="445.70001"
   class="st1"
   width="346.70001"
   height="148.60001"
   id="rect20"
   style="fill:#217346" />
	<rect
   x="1040"
   y="693.29999"
   class="st1"
   width="346.70001"
   height="148.60001"
   id="rect22"
   style="fill:#217346" />
	<rect
   x="1040"
   y="941"
   class="st1"
   width="346.70001"
   height="148.60001"
   id="rect24"
   style="fill:#217346" />
	<rect
   x="1040"
   y="1188.6"
   class="st1"
   width="346.70001"
   height="148.60001"
   id="rect26"
   style="fill:#217346" />
	<rect
   x="1040"
   y="1436.2"
   class="st1"
   width="346.70001"
   height="148.60001"
   id="rect28"
   style="fill:#217346" />
	<path
   class="st2"
   d="M 1238.1,0 0,216.9 V 1863.1 L 1238.1,2080 Z"
   id="path30"
   inkscape:connector-curvature="0"
   style="clip-rule:evenodd;fill:#217346;fill-rule:evenodd" />
	<path
   class="st0"
   d="m 884.5,594.3 -172.8,10.4 -105.5,247.6 -6.9,22.3 -5,16.8 -4.5,16.3 -3.5,13.4 v 0 c 0,-6.6 -1.5,-12.9 -4.5,-18.8 l -4.5,-17.3 -5,-16.3 -5.4,-14.9 -90.6,-235.2 -166.8,10.4 177.8,385.3 -196.6,385.3 162.9,9.9 109.4,-252.6 5,-17.3 4,-15.4 3.5,-12.9 v -10.4 0 l 3.5,18.3 3.5,15.4 3,11.9 3,8.4 113.9,269.4 189.2,11.9 -213,-424.4 205.9,-417.5"
   id="path32"
   inkscape:connector-curvature="0"
   style="fill:#ffffff" />
</g>
</svg>