<?xml version="1.0" encoding="UTF-8" standalone="no"?>
<!-- Svg Vector Icons : http://www.onlinewebfonts.com/icon -->

<svg
   version="1.1"
   x="0px"
   y="0px"
   viewBox="0 0 1000 1000"
   enable-background="new 0 0 1000 1000"
   xml:space="preserve"
   id="svg8"
   sodipodi:docname="reset.svg"
   inkscape:version="1.2 (dc2aedaf03, 2022-05-15)"
   xmlns:inkscape="http://www.inkscape.org/namespaces/inkscape"
   xmlns:sodipodi="http://sodipodi.sourceforge.net/DTD/sodipodi-0.dtd"
   xmlns="http://www.w3.org/2000/svg"
   xmlns:svg="http://www.w3.org/2000/svg"><defs
   id="defs12" /><sodipodi:namedview
   id="namedview10"
   pagecolor="#ffffff"
   bordercolor="#000000"
   borderopacity="0.25"
   inkscape:showpageshadow="2"
   inkscape:pageopacity="0.0"
   inkscape:pagecheckerboard="0"
   inkscape:deskcolor="#d1d1d1"
   showgrid="true"
   inkscape:zoom="0.877"
   inkscape:cx="499.42987"
   inkscape:cy="501.14025"
   inkscape:window-width="1920"
   inkscape:window-height="1052"
   inkscape:window-x="-8"
   inkscape:window-y="-8"
   inkscape:window-maximized="1"
   inkscape:current-layer="svg8"><inkscape:grid
     type="xygrid"
     id="grid172" /></sodipodi:namedview>
<metadata
   id="metadata2"> Svg Vector Icons : http://www.onlinewebfonts.com/icon </metadata>
<g
   id="g6"
   style="fill:#ffffff"><path
     d="M143.6,500H10l178.2,178.2L366.4,500H232.7c0-147.4,119.8-267.3,267.3-267.3c45,0,87.8,11.1,124.7,31.2l65-65C635,164.1,569.9,143.6,500,143.6C303.1,143.6,143.6,303.1,143.6,500L143.6,500z M767.3,500c0,147.4-119.8,267.3-267.3,267.3c-45,0-87.8-11.1-124.7-31.2l-65,65c54.8,34.7,119.8,55.2,189.8,55.2c196.9,0,356.4-159.5,356.4-356.4H990L811.8,321.8L633.6,500H767.3L767.3,500z"
     id="path4"
     style="fill:#ffffff" /></g>
</svg>
